<svg xmlns="http://www.w3.org/2000/svg" viewBox="0 0 512 512"><defs><linearGradient id="g" x1="0" y1="0" x2="0" y2="1"><stop offset="0" stop-color="#FBBF24"/><stop offset="1" stop-color="#F59E0B"/></linearGradient></defs><g transform="scale(0.408293)"><g transform="translate(0.000000,1254.000000) scale(0.100000,-0.100000)" fill="url(#g)"><path d="M6214 10036 c-65 -29 -101 -107 -84 -183 15 -63 -10 -531 -46 -873 -176 -1694 -748 -2789 -1839 -3517 -71 -48 -134 -90 -139 -95 -6 -4 973 -8 2174 -8 l2183 0 -124 83 c-718 476 -1206 1100 -1497 1913 -233 650 -394 1599 -407 2393 -3 221 -4 227 -67 274 -34 25 -113 32 -154 13z"/><path d="M4000 8822 c-48 -25 -83 -93 -76 -147 109 -789 -74 -1852 -417 -2420 -263 -437 -742 -786 -1156 -844 -144 -19 -217 -140 -151 -248 45 -75 92 -86 294 -67 1028 94 2044 739 2655 1684 75 117 76 105 -16 183 -307 258 -590 666 -738 1062 -85 227 -165 550 -165 663 0 118 -123 190 -230 134z"/><path d="M8389 8817 c-46 -30 -82 -101 -75 -147 3 -20 -7 -96 -24 -180 -122 -604 -431 -1148 -865 -1521 -102 -87 -103 -69 13 -240 634 -938 1622 -1543 2673 -1639 146 -13 207 8 243 84 53 112 -13 216 -150 235 -685 98 -1259 741 -1480 1659 -106 440 -162 1275 -105 1569 30 153 -109 261 -230 180z"/><path d="M2417 7450 c-55 -30 -79 -73 -74 -135 37 -437 281 -1615 335 -1615 11 0 186 102 237 138 150 108 395 360 395 407 0 7 -33 39 -73 72 -268 220 -530 655 -587 973 -28 155 -122 220 -233 160z"/><path d="M9990 7452 c-47 -23 -76 -70 -83 -134 -37 -306 -318 -779 -602 -1009 -79 -64 -79 -56 2 -159 164 -210 555 -503 576 -432 133 445 197 728 256 1127 17 116 40 266 51 335 25 158 25 180 -2 220 -45 65 -128 87 -198 52z"/><path d="M4280 5029 c-149 -67 -184 -251 -71 -372 52 -57 70 -62 276 -67 l190 -5 5 -1278 5 -1279 24 -19 c57 -46 86 -32 217 112 207 228 179 226 384 24 209 -206 181 -206 390 0 203 201 175 201 391 -11 194 -191 173 -191 363 -7 77 76 145 144 151 151 42 52 76 34 244 -132 210 -207 182 -207 391 -1 207 204 168 210 415 -57 103 -111 139 -125 190 -73 l25 24 0 1276 0 1275 180 0 c197 0 229 7 283 58 127 120 80 342 -82 390 -81 25 -3917 16 -3971 -9z"/></g></g></svg>